<svg xmlns="http://www.w3.org/2000/svg" width="159.492" height="64.927" viewBox="0 0 159.492 64.927">
  <g id="logo" transform="translate(-323.58 -17.072)">
    <g id="그룹_96" data-name="그룹 96" transform="translate(1546.596 673.474)">
      <path id="패스_15" data-name="패스 15" d="M-1220.562-624.8c0-17.144,13.321-31.091,29.7-31.091s29.7,13.947,29.7,31.091a32.2,32.2,0,0,1-2.057,11.346c.151.067.3.137.449.207a32.724,32.724,0,0,0,2.1-11.553c0-17.426-13.541-31.6-30.187-31.6s-30.187,14.178-30.187,31.6a32.787,32.787,0,0,0,1.777,10.677c.228.166.461.322.7.476A32.212,32.212,0,0,1-1220.562-624.8Z" transform="translate(-0.092 0)" fill="#200c0c"/>
      <path id="패스_16" data-name="패스 16" d="M-1190.842-655.888c-16.375,0-29.7,13.947-29.7,31.091a32.218,32.218,0,0,0,1.983,11.152,17.246,17.246,0,0,0,2.077,1.165,19.588,19.588,0,0,0,8,1.866,34.73,34.73,0,0,0,8.256-.788c1.357-.278,2.7-.656,4.048-1.053l4.057-1.3a51.037,51.037,0,0,1,8.463-2.021,42.917,42.917,0,0,1,8.7-.264,39.5,39.5,0,0,1,8.553,1.425,27.651,27.651,0,0,1,3.2,1.167,32.2,32.2,0,0,0,2.057-11.346C-1161.145-641.941-1174.468-655.888-1190.842-655.888Z" transform="translate(-0.117 -0.001)" fill="none"/>
      <path id="패스_17" data-name="패스 17" d="M-1162.469-612.976c-.131-.065-.268-.123-.4-.185-.15-.07-.3-.14-.449-.207a27.641,27.641,0,0,0-3.2-1.167,39.494,39.494,0,0,0-8.553-1.425,42.911,42.911,0,0,0-8.7.264,51.037,51.037,0,0,0-8.463,2.021l-4.057,1.3c-1.346.4-2.691.774-4.048,1.053a34.732,34.732,0,0,1-8.256.788,19.588,19.588,0,0,1-8-1.866,17.251,17.251,0,0,1-2.077-1.165c-.235-.154-.469-.31-.7-.476a15.505,15.505,0,0,1-3.648-3.708,14.187,14.187,0,0,0,4.138,5.033c.249.2.506.38.765.562.337.236.681.462,1.034.674a19.288,19.288,0,0,0,4.037,1.785,22.543,22.543,0,0,0,4.34.813,28.555,28.555,0,0,0,4.389.056c.729-.057,1.461-.085,2.185-.2l1.09-.141c.362-.052.719-.127,1.081-.19a72.315,72.315,0,0,0,8.344-2.3,52.072,52.072,0,0,1,8.129-2.063,47.8,47.8,0,0,1,8.348-.6c1.4.012,2.806.087,4.2.2.7.047,1.393.155,2.093.229.692.109,1.387.217,2.075.353a27.291,27.291,0,0,1,3.2.806c.157.049.314.1.469.154.134.044.269.085.4.132a17.61,17.61,0,0,1,1.959.805,10.316,10.316,0,0,1,1.843,1.07A13.611,13.611,0,0,0-1162.469-612.976Z" transform="translate(0 -0.085)" fill="#200c0c"/>
      <path id="패스_18" data-name="패스 18" d="M-1166.284-606.259q-.5.286-1.014.564-.7.379-1.406.746a62.751,62.751,0,0,1-7.192,3.115,48.514,48.514,0,0,1-15.3,3.011,36.592,36.592,0,0,1-15.243-2.786,35.938,35.938,0,0,1-6.8-3.749c-.552-.368-1.087-.756-1.612-1.159-.43-.331-.848-.676-1.264-1.024-1.061-.892-2.083-1.831-3.086-2.784a30.921,30.921,0,0,0,28.424,18.951,30.861,30.861,0,0,0,27.291-16.579C-1164.406-607.353-1165.338-606.794-1166.284-606.259Z" transform="translate(-0.18 -0.102)" fill="#45541b"/>
      <path id="패스_19" data-name="패스 19" d="M-1163.861-610.424q-.223-.088-.463-.178a36.59,36.59,0,0,0-12.649-1.914c-6.557,0-10.753,1.35-15.195,2.779-4.221,1.359-8.586,2.763-14.738,2.763a23.531,23.531,0,0,1-9.369-1.809q-.386-.166-.753-.342a19.853,19.853,0,0,1-2.168-1.2c.943.837,1.9,1.662,2.879,2.447q.562.448,1.14.874c.677.5,1.37.981,2.086,1.425a35.551,35.551,0,0,0,6.85,3.477,35.806,35.806,0,0,0,15.006,2.219,47.261,47.261,0,0,0,14.788-3.44,61.178,61.178,0,0,0,6.889-3.269c1.591-.891,3.168-1.857,4.66-2.886q.448-.31.882-.628c.112-.082.231-.16.341-.242Z" transform="translate(-0.18 -0.097)" fill="#718736"/>
      <path id="패스_20" data-name="패스 20" d="M-1174.733-626.835a24.631,24.631,0,0,1-1.306-2.567c-.395-.874-.705-1.8-1.01-2.7a17.533,17.533,0,0,0-2.562-4.96,12.486,12.486,0,0,0-4.128-3.545,12.652,12.652,0,0,0-5.179-1.4,15.667,15.667,0,0,0-2.7.092,12.852,12.852,0,0,0-1.328.218,8.563,8.563,0,0,0-1.273.411,13.8,13.8,0,0,0-4.431,3.152,25.693,25.693,0,0,0-3.422,4.409,22.58,22.58,0,0,0-1.339,2.468c-.1.211-.187.426-.265.641a1.667,1.667,0,0,0-.14.578,1.5,1.5,0,0,0,.621.972,4.506,4.506,0,0,0,2.442.807,10.612,10.612,0,0,0,2.67-.19c.442-.088.883-.185,1.32-.311.219-.057.434-.129.652-.194s.449-.136.675-.194a15.293,15.293,0,0,1,2.753-.444,14.045,14.045,0,0,1,5.507.639,11.324,11.324,0,0,1,2.524,1.217c.785.51,1.53,1.066,2.3,1.576a18.2,18.2,0,0,0,4.947,2.4,19.711,19.711,0,0,0,5.443.741A23.864,23.864,0,0,1-1174.733-626.835Z" transform="translate(-0.902 -0.032)" fill="#d05836"/>
      <path id="패스_21" data-name="패스 21" d="M-1209.639-631.724a4.628,4.628,0,0,0-2.71.012,4.608,4.608,0,0,0-2.169,1.658,2.817,2.817,0,0,0-.356,2.607,2.471,2.471,0,0,0,.877.985,5.006,5.006,0,0,0,1.222.585,11.833,11.833,0,0,0,2.7.5c.919.079,1.845.085,2.77.077h.019l.01,0a1.17,1.17,0,0,1,.29.082,1.8,1.8,0,0,1,.238.119,2.674,2.674,0,0,1,.415.308,3.754,3.754,0,0,1,.633.779,7.446,7.446,0,0,1,.776,1.8,13.854,13.854,0,0,1,.41,1.89c.051.314.086.646.124.947a8.017,8.017,0,0,0,.17.9,5.528,5.528,0,0,0,.686,1.648,3.89,3.89,0,0,0,1.219,1.214,4.75,4.75,0,0,0,3.332.539,5.368,5.368,0,0,0,.833-.22l-1.552-1.207h0c-.073-.048-.832-.967,2.286.829.207.049.414.092.622.128a9.046,9.046,0,0,0,2.111.122,5.758,5.758,0,0,0,1.7-.359,4.231,4.231,0,0,0,.7-.349c-.033-.007-.068-.013-.1-.021a5.677,5.677,0,0,1-.857-.252.831.831,0,0,1-.175-.083,7.43,7.43,0,0,1-1.13-.722c-.224-.32,2.7.607,2.68.595.057.011.111.018.167.028h0c.1.017.2.035.291.046.075.01.153.012.23.017q.313.021.635.012a16.624,16.624,0,0,0,1.775-.184c2.377-.374,4.73-.947,7.1-1.482.606-.129,1.214-.208,1.817-.281s1.2-.143,1.81-.2a22.7,22.7,0,0,1,3.664-.09,32.637,32.637,0,0,1,3.629.448l2.272.4c-.407-.294-.8-.6-1.187-.929a23.168,23.168,0,0,1-2.074-1.987c-.226-.244-.445-.5-.661-.75l-.17,0,.146.006a18.805,18.805,0,0,1-5.5-.772,18.594,18.594,0,0,1-5.042-2.461c-.785-.521-1.541-1.088-2.321-1.6a10.983,10.983,0,0,0-2.486-1.191,13.819,13.819,0,0,0-5.416-.609,17.907,17.907,0,0,0-2.7.422c-.223.054-.439.114-.662.175s-.453.128-.682.181c-.456.116-.919.206-1.383.287a11.225,11.225,0,0,1-2.835.134,6.363,6.363,0,0,1-1.417-.288,4,4,0,0,1-1.317-.7,2.449,2.449,0,0,1-.642-.794,16.707,16.707,0,0,0-2.272-1.777A9.251,9.251,0,0,0-1209.639-631.724Z" transform="translate(-0.374 -0.054)" fill="#200c0c"/>
      <path id="패스_22" data-name="패스 22" d="M-1199.578-637.284" transform="translate(-1.101 -0.042)" fill="none" stroke="#200c0c" stroke-miterlimit="10" stroke-width="1"/>
    </g>
    <g id="그룹_97" data-name="그룹 97" transform="translate(1541.748 675.548)">
      <path id="패스_23" data-name="패스 23" d="M-1144.728-636.794a6.742,6.742,0,0,0-.149-1.812,1.38,1.38,0,0,0-.793-.72,4.318,4.318,0,0,1-.447-.249.471.471,0,0,1-.2-.248.679.679,0,0,1-.025-.323,3.541,3.541,0,0,0,.025-.472v-.844l2.036.249h8.194q.5,0,1.489-.025c.663-.016,1.374-.058,2.136-.124q1.141-.049,2.21-.173a13.628,13.628,0,0,0,1.663-.273,3.112,3.112,0,0,1,.92-.05,2.822,2.822,0,0,1,.67.2l.894.547q.745.447.819.77a.885.885,0,0,1-.074.62c-.231.5-.5.788-.8.869a2.872,2.872,0,0,1-.744.124h-14.848c.033.2.057.406.074.621s.024.422.024.621v16.438a.524.524,0,0,0,.2.447.609.609,0,0,0,.347.148q2.433-.049,5.116-.372t5.114-.819q2.484-.546,4.594-1.217a16.8,16.8,0,0,0,3.452-1.464,1.132,1.132,0,0,1,.572-.075,2.036,2.036,0,0,1,.868.323q.694.5.571.895t-1.018.993a23.141,23.141,0,0,1-4.146,1.862,45.123,45.123,0,0,1-4.693,1.316,50.35,50.35,0,0,1-5.067.944q-2.582.349-5.064.6a6.913,6.913,0,0,1-.77.075c-.314.016-.571.025-.769.025a2.414,2.414,0,0,1-1.54-.77,2.133,2.133,0,0,1-.845-1.514Zm30.144,8.542,1.987-.1a7.3,7.3,0,0,0,1.292-.1,16.654,16.654,0,0,0,1.689-.446c.3-.1.562-.182.793-.249a6.236,6.236,0,0,1,.646-.149,1.352,1.352,0,0,1,.571.025,3.917,3.917,0,0,1,.672.274l1.787,1.042a.9.9,0,0,1,.4.6.954.954,0,0,1-.2.695l-.249.348a1.375,1.375,0,0,1-.72.521,1.423,1.423,0,0,1-.87-.025c-.23-.033-.529-.058-.893-.074s-.612-.025-.745-.025h-6.157v15.743a4.546,4.546,0,0,1-.273,1.515q-.273.768-.572,1.464-.347.7-.67,1.218t-.471.72a.635.635,0,0,1-.646.223q-.4-.074-.4-.372V-647.62a2.41,2.41,0,0,0-.472-1.541,8.863,8.863,0,0,0-1.166-1.191q-.5-.4-.1-1.142t1.043-.447l2.185.994a3.117,3.117,0,0,1,1.317.968,2.958,2.958,0,0,1,.223,1.317Z" fill="#200c0c"/>
      <path id="패스_24" data-name="패스 24" d="M-1103.444-641.264a7.809,7.809,0,0,0-.123-1.787,1.462,1.462,0,0,0-.77-.746c-.364-.165-.572-.322-.62-.471a2.967,2.967,0,0,1-.075-.819v-.844l2.036.249h7.847c.33,0,.827-.008,1.489-.025s1.374-.057,2.136-.124q1.141-.049,2.209-.174a13.662,13.662,0,0,0,1.664-.273,3.113,3.113,0,0,1,.919-.05,2.835,2.835,0,0,1,.67.2l.894.547q.745.447.819.695a.729.729,0,0,1-.074.547,1.8,1.8,0,0,1-.8.944,1.923,1.923,0,0,1-.744.2h-14.5a4,4,0,0,0,.05.621,4.275,4.275,0,0,1,.048.621v11.224a.521.521,0,0,0,.2.446.615.615,0,0,0,.347.149,50.49,50.49,0,0,0,5.09-.373q2.658-.322,5.14-.868a40.784,40.784,0,0,0,4.693-1.192,26.128,26.128,0,0,0,3.65-1.44,1.145,1.145,0,0,1,.571-.074,2.031,2.031,0,0,1,.87.323c.464.331.67.646.622.944s-.407.613-1.068.944a34.266,34.266,0,0,1-9.287,3.227q-5.015.995-9.981,1.49a6.99,6.99,0,0,1-.77.074c-.314.018-.572.025-.769.025a2.412,2.412,0,0,1-1.539-.769,2.132,2.132,0,0,1-.845-1.515Zm30.939,33.423a3.156,3.156,0,0,1-.3,1.464q-.3.571-1.49.572l-17.679.248a2.661,2.661,0,0,1-.124.92,2.239,2.239,0,0,1-.372.62,1.69,1.69,0,0,1-.819.423,1.49,1.49,0,0,1-.969-.075.813.813,0,0,1-.447-.273.762.762,0,0,1-.2-.521l-.1-1.639-.894-12.615-.893-1.738a.523.523,0,0,1,.024-.695,3.9,3.9,0,0,1,.72-.6,2.03,2.03,0,0,1,.87-.323.706.706,0,0,1,.572.173l1.289,1.391,19.071-.3h.4a1.658,1.658,0,0,1,.4.049,1.408,1.408,0,0,1,.372.049.633.633,0,0,1,.274.149,2,2,0,0,1,.2.472,3.091,3.091,0,0,1,.1.868Zm-3.03-9.287a1.3,1.3,0,0,0-.149-.794,1.417,1.417,0,0,0-.844-.15l-15.2.2a1.578,1.578,0,0,0-.621.1.46.46,0,0,0-.273.249.611.611,0,0,0-.1.347,2.319,2.319,0,0,0,.049.447l.547,8.443,15.544-.249a.991.991,0,0,0,.769-.3,1.368,1.368,0,0,0,.274-.944Zm3.427-19.169,1.788-.049a7.287,7.287,0,0,0,1.291-.1,16.8,16.8,0,0,0,1.689-.447c.3-.1.563-.181.794-.248s.43-.116.6-.149a3.63,3.63,0,0,1,.6.049,2.576,2.576,0,0,1,.7.249l1.788,1.043a.983.983,0,0,1,.421.6.787.787,0,0,1-.223.695l-.248.348a1.386,1.386,0,0,1-.72.522,1.423,1.423,0,0,1-.87-.025c-.232-.032-.531-.057-.895-.074s-.612-.025-.744-.025h-5.96v5.364a4.4,4.4,0,0,1-.273,1.464,13.245,13.245,0,0,1-.621,1.465c-.232.464-.455.878-.671,1.242s-.373.613-.471.745a.68.68,0,0,1-.646.248.4.4,0,0,1-.4-.446V-647.62a2.41,2.41,0,0,0-.472-1.541,8.739,8.739,0,0,0-1.166-1.191q-.5-.4-.1-1.142t1.043-.447l2.185.994a3.132,3.132,0,0,1,1.365.968,2.955,2.955,0,0,1,.224,1.317Z" transform="translate(3.758)" fill="#200c0c"/>
    </g>
  </g>
</svg>
