<svg xmlns="http://www.w3.org/2000/svg" width="64.127" height="64.927" viewBox="0 0 64.127 64.927">
  <g id="그룹_96" data-name="그룹 96" transform="translate(1223.016 656.402)">
    <path id="패스_15" data-name="패스 15" d="M-1220.562-624.8c0-17.144,13.321-31.091,29.7-31.091s29.7,13.947,29.7,31.091a32.2,32.2,0,0,1-2.057,11.346c.151.067.3.137.449.207a32.724,32.724,0,0,0,2.1-11.553c0-17.426-13.541-31.6-30.187-31.6s-30.187,14.178-30.187,31.6a32.787,32.787,0,0,0,1.777,10.677c.228.166.461.322.7.476A32.212,32.212,0,0,1-1220.562-624.8Z" transform="translate(-0.092 0)" fill="#200c0c"/>
    <path id="패스_16" data-name="패스 16" d="M-1190.842-655.888c-16.375,0-29.7,13.947-29.7,31.091a32.218,32.218,0,0,0,1.983,11.152,17.246,17.246,0,0,0,2.077,1.165,19.588,19.588,0,0,0,8,1.866,34.73,34.73,0,0,0,8.256-.788c1.357-.278,2.7-.656,4.048-1.053l4.057-1.3a51.037,51.037,0,0,1,8.463-2.021,42.917,42.917,0,0,1,8.7-.264,39.5,39.5,0,0,1,8.553,1.425,27.651,27.651,0,0,1,3.2,1.167,32.2,32.2,0,0,0,2.057-11.346C-1161.145-641.941-1174.468-655.888-1190.842-655.888Z" transform="translate(-0.117 -0.001)" fill="none"/>
    <path id="패스_17" data-name="패스 17" d="M-1162.469-612.976c-.131-.065-.268-.123-.4-.185-.15-.07-.3-.14-.449-.207a27.641,27.641,0,0,0-3.2-1.167,39.494,39.494,0,0,0-8.553-1.425,42.911,42.911,0,0,0-8.7.264,51.037,51.037,0,0,0-8.463,2.021l-4.057,1.3c-1.346.4-2.691.774-4.048,1.053a34.732,34.732,0,0,1-8.256.788,19.588,19.588,0,0,1-8-1.866,17.251,17.251,0,0,1-2.077-1.165c-.235-.154-.469-.31-.7-.476a15.505,15.505,0,0,1-3.648-3.708,14.187,14.187,0,0,0,4.138,5.033c.249.2.506.38.765.562.337.236.681.462,1.034.674a19.288,19.288,0,0,0,4.037,1.785,22.543,22.543,0,0,0,4.34.813,28.555,28.555,0,0,0,4.389.056c.729-.057,1.461-.085,2.185-.2l1.09-.141c.362-.052.719-.127,1.081-.19a72.315,72.315,0,0,0,8.344-2.3,52.072,52.072,0,0,1,8.129-2.063,47.8,47.8,0,0,1,8.348-.6c1.4.012,2.806.087,4.2.2.7.047,1.393.155,2.093.229.692.109,1.387.217,2.075.353a27.291,27.291,0,0,1,3.2.806c.157.049.314.1.469.154.134.044.269.085.4.132a17.61,17.61,0,0,1,1.959.805,10.316,10.316,0,0,1,1.843,1.07A13.611,13.611,0,0,0-1162.469-612.976Z" transform="translate(0 -0.085)" fill="#200c0c"/>
    <path id="패스_18" data-name="패스 18" d="M-1166.284-606.259q-.5.286-1.014.564-.7.379-1.406.746a62.751,62.751,0,0,1-7.192,3.115,48.514,48.514,0,0,1-15.3,3.011,36.592,36.592,0,0,1-15.243-2.786,35.938,35.938,0,0,1-6.8-3.749c-.552-.368-1.087-.756-1.612-1.159-.43-.331-.848-.676-1.264-1.024-1.061-.892-2.083-1.831-3.086-2.784a30.921,30.921,0,0,0,28.424,18.951,30.861,30.861,0,0,0,27.291-16.579C-1164.406-607.353-1165.338-606.794-1166.284-606.259Z" transform="translate(-0.18 -0.102)" fill="#45541b"/>
    <path id="패스_19" data-name="패스 19" d="M-1163.861-610.424q-.223-.088-.463-.178a36.59,36.59,0,0,0-12.649-1.914c-6.557,0-10.753,1.35-15.195,2.779-4.221,1.359-8.586,2.763-14.738,2.763a23.531,23.531,0,0,1-9.369-1.809q-.386-.166-.753-.342a19.853,19.853,0,0,1-2.168-1.2c.943.837,1.9,1.662,2.879,2.447q.562.448,1.14.874c.677.5,1.37.981,2.086,1.425a35.551,35.551,0,0,0,6.85,3.477,35.806,35.806,0,0,0,15.006,2.219,47.261,47.261,0,0,0,14.788-3.44,61.178,61.178,0,0,0,6.889-3.269c1.591-.891,3.168-1.857,4.66-2.886q.448-.31.882-.628c.112-.082.231-.16.341-.242Z" transform="translate(-0.18 -0.097)" fill="#718736"/>
    <path id="패스_20" data-name="패스 20" d="M-1174.733-626.835a24.631,24.631,0,0,1-1.306-2.567c-.395-.874-.705-1.8-1.01-2.7a17.533,17.533,0,0,0-2.562-4.96,12.486,12.486,0,0,0-4.128-3.545,12.652,12.652,0,0,0-5.179-1.4,15.667,15.667,0,0,0-2.7.092,12.852,12.852,0,0,0-1.328.218,8.563,8.563,0,0,0-1.273.411,13.8,13.8,0,0,0-4.431,3.152,25.693,25.693,0,0,0-3.422,4.409,22.58,22.58,0,0,0-1.339,2.468c-.1.211-.187.426-.265.641a1.667,1.667,0,0,0-.14.578,1.5,1.5,0,0,0,.621.972,4.506,4.506,0,0,0,2.442.807,10.612,10.612,0,0,0,2.67-.19c.442-.088.883-.185,1.32-.311.219-.057.434-.129.652-.194s.449-.136.675-.194a15.293,15.293,0,0,1,2.753-.444,14.045,14.045,0,0,1,5.507.639,11.324,11.324,0,0,1,2.524,1.217c.785.51,1.53,1.066,2.3,1.576a18.2,18.2,0,0,0,4.947,2.4,19.711,19.711,0,0,0,5.443.741A23.864,23.864,0,0,1-1174.733-626.835Z" transform="translate(-0.902 -0.032)" fill="#d05836"/>
    <path id="패스_21" data-name="패스 21" d="M-1209.639-631.724a4.628,4.628,0,0,0-2.71.012,4.608,4.608,0,0,0-2.169,1.658,2.817,2.817,0,0,0-.356,2.607,2.471,2.471,0,0,0,.877.985,5.006,5.006,0,0,0,1.222.585,11.833,11.833,0,0,0,2.7.5c.919.079,1.845.085,2.77.077h.019l.01,0a1.17,1.17,0,0,1,.29.082,1.8,1.8,0,0,1,.238.119,2.674,2.674,0,0,1,.415.308,3.754,3.754,0,0,1,.633.779,7.446,7.446,0,0,1,.776,1.8,13.854,13.854,0,0,1,.41,1.89c.051.314.086.646.124.947a8.017,8.017,0,0,0,.17.9,5.528,5.528,0,0,0,.686,1.648,3.89,3.89,0,0,0,1.219,1.214,4.75,4.75,0,0,0,3.332.539,5.368,5.368,0,0,0,.833-.22l-1.552-1.207h0c-.073-.048-.832-.967,2.286.829.207.049.414.092.622.128a9.046,9.046,0,0,0,2.111.122,5.758,5.758,0,0,0,1.7-.359,4.231,4.231,0,0,0,.7-.349c-.033-.007-.068-.013-.1-.021a5.677,5.677,0,0,1-.857-.252.831.831,0,0,1-.175-.083,7.43,7.43,0,0,1-1.13-.722c-.224-.32,2.7.607,2.68.595.057.011.111.018.167.028h0c.1.017.2.035.291.046.075.01.153.012.23.017q.313.021.635.012a16.624,16.624,0,0,0,1.775-.184c2.377-.374,4.73-.947,7.1-1.482.606-.129,1.214-.208,1.817-.281s1.2-.143,1.81-.2a22.7,22.7,0,0,1,3.664-.09,32.637,32.637,0,0,1,3.629.448l2.272.4c-.407-.294-.8-.6-1.187-.929a23.168,23.168,0,0,1-2.074-1.987c-.226-.244-.445-.5-.661-.75l-.17,0,.146.006a18.805,18.805,0,0,1-5.5-.772,18.594,18.594,0,0,1-5.042-2.461c-.785-.521-1.541-1.088-2.321-1.6a10.983,10.983,0,0,0-2.486-1.191,13.819,13.819,0,0,0-5.416-.609,17.907,17.907,0,0,0-2.7.422c-.223.054-.439.114-.662.175s-.453.128-.682.181c-.456.116-.919.206-1.383.287a11.225,11.225,0,0,1-2.835.134,6.363,6.363,0,0,1-1.417-.288,4,4,0,0,1-1.317-.7,2.449,2.449,0,0,1-.642-.794,16.707,16.707,0,0,0-2.272-1.777A9.251,9.251,0,0,0-1209.639-631.724Z" transform="translate(-0.374 -0.054)" fill="#200c0c"/>
    <path id="패스_22" data-name="패스 22" d="M-1199.578-637.284" transform="translate(-1.101 -0.042)" fill="none" stroke="#200c0c" stroke-miterlimit="10" stroke-width="1"/>
  </g>
</svg>
